<?xml version="1.0" encoding="UTF-8"?>
<svg id="Layer_1" data-name="Layer 1" xmlns="http://www.w3.org/2000/svg" viewBox="0 0 391.23 73.18">
  <defs>
    <style>
      .cls-1 {
        fill: #fff;
      }
    </style>
  </defs>
  <path class="cls-1" d="m21.99,12.8H0V0h21.99v12.8ZM2,10.8h17.99V2H2v8.8Z"/>
  <path class="cls-1" d="m21.99,27.89H0v-12.8h21.99v12.8Zm-19.99-2h17.99v-8.8H2v8.8Z"/>
  <path class="cls-1" d="m21.99,42.99H0v-12.8h21.99v12.8Zm-19.99-2h17.99v-8.8H2v8.8Z"/>
  <path class="cls-1" d="m21.99,58.08H0v-12.8h21.99v12.8Zm-19.99-2h17.99v-8.8H2v8.8Z"/>
  <path class="cls-1" d="m21.99,73.18H0v-12.8h21.99v12.8Zm-19.99-2h17.99v-8.8H2v8.8Z"/>
  <path class="cls-1" d="m49.18,42.99h-21.99v-12.8h21.99v12.8Zm-19.99-2h17.99v-8.8h-17.99v8.8Z"/>
  <path class="cls-1" d="m49.18,58.08h-21.99v-12.8h21.99v12.8Zm-19.99-2h17.99v-8.8h-17.99v8.8Z"/>
  <path class="cls-1" d="m49.18,73.18h-21.99v-12.8h21.99v12.8Zm-19.99-2h17.99v-8.8h-17.99v8.8Z"/>
  <path class="cls-1" d="m76.36,27.89h-21.99v-12.8h21.99v12.8Zm-19.99-2h17.99v-8.8h-17.99v8.8Z"/>
  <path class="cls-1" d="m76.36,42.99h-21.99v-12.8h21.99v12.8Zm-19.99-2h17.99v-8.8h-17.99v8.8Z"/>
  <path class="cls-1" d="m76.36,58.08h-21.99v-12.8h21.99v12.8Zm-19.99-2h17.99v-8.8h-17.99v8.8Z"/>
  <path class="cls-1" d="m76.36,73.18h-21.99v-12.8h21.99v12.8Zm-19.99-2h17.99v-8.8h-17.99v8.8Z"/>
  <g>
    <path class="cls-1" d="m96.34,24.08v-6.86h30.42v6.86h-11.13v30.26h-8.16v-30.26h-11.13Z"/>
    <path class="cls-1" d="m124.63,35.08c.66-1.75,1.59-3.24,2.81-4.47,1.21-1.23,2.67-2.18,4.37-2.86,1.7-.68,3.6-1.01,5.72-1.01s4.03.34,5.75,1.01c1.72.68,3.18,1.63,4.39,2.86,1.21,1.23,2.15,2.72,2.81,4.47.66,1.75.99,3.7.99,5.85s-.33,4.09-.99,5.82c-.66,1.73-1.6,3.22-2.81,4.45-1.21,1.23-2.68,2.18-4.39,2.83s-3.63.99-5.75.99-4.02-.33-5.72-.99c-1.7-.66-3.16-1.6-4.37-2.83-1.21-1.23-2.15-2.71-2.81-4.45-.66-1.73-.99-3.67-.99-5.82s.33-4.1.99-5.85Zm6.71,9c.21,1.02.56,1.94,1.07,2.76.5.81,1.17,1.47,2,1.95.83.49,1.87.73,3.12.73s2.3-.24,3.15-.73c.85-.48,1.53-1.14,2.03-1.95.5-.81.86-1.73,1.07-2.76.21-1.02.31-2.07.31-3.15s-.1-2.13-.31-3.17-.56-1.96-1.07-2.76c-.5-.8-1.18-1.45-2.03-1.95-.85-.5-1.9-.75-3.15-.75s-2.29.25-3.12.75c-.83.5-1.5,1.15-2,1.95-.5.8-.86,1.72-1.07,2.76s-.31,2.1-.31,3.17.1,2.12.31,3.15Z"/>
    <path class="cls-1" d="m174.44,54.35v-3.74h-.16c-.94,1.56-2.15,2.69-3.64,3.38-1.49.69-3.02,1.04-4.58,1.04-1.98,0-3.6-.26-4.86-.78-1.27-.52-2.26-1.26-2.99-2.21-.73-.95-1.24-2.11-1.53-3.48-.29-1.37-.44-2.89-.44-4.55v-16.54h7.38v15.18c0,2.22.35,3.87,1.04,4.97.69,1.09,1.92,1.64,3.69,1.64,2.01,0,3.47-.6,4.37-1.79.9-1.2,1.35-3.16,1.35-5.9v-14.09h7.38v26.88h-7.02Z"/>
    <path class="cls-1" d="m194.1,27.47v4.99h.1c.35-.83.81-1.6,1.4-2.31.59-.71,1.27-1.32,2.03-1.82.76-.5,1.58-.89,2.44-1.17.87-.28,1.77-.42,2.7-.42.48,0,1.02.09,1.61.26v6.86c-.35-.07-.76-.13-1.25-.18-.49-.05-.95-.08-1.4-.08-1.35,0-2.5.23-3.43.68-.94.45-1.69,1.07-2.26,1.85-.57.78-.98,1.69-1.22,2.73-.24,1.04-.36,2.17-.36,3.38v12.12h-7.38v-26.88h7.02Z"/>
    <path class="cls-1" d="m205.17,24.08v-6.86h30.42v6.86h-11.13v30.26h-8.16v-30.26h-11.13Z"/>
    <path class="cls-1" d="m241.31,27.47v4.99h.1c.35-.83.81-1.6,1.4-2.31.59-.71,1.27-1.32,2.03-1.82.76-.5,1.58-.89,2.44-1.17.87-.28,1.77-.42,2.7-.42.49,0,1.02.09,1.61.26v6.86c-.35-.07-.76-.13-1.25-.18-.49-.05-.96-.08-1.4-.08-1.35,0-2.5.23-3.43.68-.94.45-1.69,1.07-2.26,1.85-.57.78-.98,1.69-1.22,2.73s-.36,2.17-.36,3.38v12.12h-7.38v-26.88h7.02Z"/>
    <path class="cls-1" d="m254.21,35.73c.1-1.73.54-3.17,1.3-4.32s1.73-2.06,2.91-2.76c1.18-.69,2.5-1.19,3.98-1.48,1.47-.29,2.96-.44,4.45-.44,1.35,0,2.72.1,4.11.29,1.39.19,2.65.56,3.8,1.12,1.14.56,2.08,1.33,2.81,2.31.73.99,1.09,2.3,1.09,3.93v13.99c0,1.21.07,2.38.21,3.48.14,1.11.38,1.94.73,2.5h-7.49c-.14-.42-.25-.84-.34-1.27-.09-.43-.15-.88-.18-1.33-1.18,1.21-2.57,2.06-4.16,2.55-1.59.48-3.22.73-4.89.73-1.28,0-2.48-.16-3.59-.47s-2.08-.8-2.91-1.46c-.83-.66-1.48-1.49-1.95-2.5-.47-1-.7-2.2-.7-3.59,0-1.52.27-2.78.81-3.77.54-.99,1.23-1.78,2.08-2.37.85-.59,1.82-1.03,2.91-1.33,1.09-.29,2.19-.53,3.3-.7,1.11-.17,2.2-.31,3.28-.42,1.07-.1,2.03-.26,2.86-.47s1.49-.51,1.98-.91c.49-.4.71-.98.68-1.74,0-.8-.13-1.43-.39-1.9-.26-.47-.61-.83-1.04-1.09-.43-.26-.94-.43-1.51-.52-.57-.09-1.19-.13-1.85-.13-1.46,0-2.6.31-3.43.94s-1.32,1.66-1.46,3.12h-7.38Zm17.06,5.46c-.31.28-.7.49-1.17.65-.47.16-.97.29-1.51.39-.54.1-1.1.19-1.69.26-.59.07-1.18.16-1.77.26-.55.1-1.1.24-1.64.42-.54.17-1.01.41-1.4.7-.4.29-.72.67-.96,1.12-.24.45-.36,1.02-.36,1.72s.12,1.21.36,1.66c.24.45.57.81.99,1.07.42.26.9.44,1.46.55.55.1,1.13.16,1.72.16,1.46,0,2.58-.24,3.38-.73.8-.49,1.39-1.07,1.77-1.74.38-.68.62-1.36.7-2.05.09-.69.13-1.25.13-1.66v-2.76Z"/>
    <path class="cls-1" d="m297.21,32.3c-1.18,0-2.17.27-2.96.81-.8.54-1.45,1.23-1.95,2.08-.5.85-.86,1.79-1.07,2.81-.21,1.02-.31,2.04-.31,3.04s.1,1.96.31,2.96c.21,1.01.55,1.92,1.01,2.73.47.81,1.1,1.48,1.9,2,.8.52,1.77.78,2.91.78,1.77,0,3.13-.49,4.08-1.48.95-.99,1.55-2.31,1.79-3.98h7.12c-.49,3.57-1.87,6.29-4.16,8.16s-5.22,2.81-8.79,2.81c-2.01,0-3.86-.34-5.54-1.01-1.68-.68-3.11-1.62-4.29-2.83-1.18-1.21-2.1-2.66-2.76-4.34-.66-1.68-.99-3.53-.99-5.54s.3-4.01.91-5.8c.61-1.79,1.5-3.33,2.68-4.63,1.18-1.3,2.62-2.31,4.32-3.04,1.7-.73,3.64-1.09,5.82-1.09,1.59,0,3.13.21,4.6.62s2.79,1.05,3.95,1.9c1.16.85,2.11,1.91,2.83,3.17.73,1.27,1.14,2.77,1.25,4.5h-7.23c-.49-3.08-2.31-4.63-5.46-4.63Z"/>
    <path class="cls-1" d="m322.28,17.22v19.92l9.31-9.67h8.74l-10.14,9.88,11.28,17h-8.94l-7.38-12.01-2.86,2.76v9.26h-7.38V17.22h7.38Z"/>
    <path class="cls-1" d="m351.97,47.9c1.11,1.08,2.7,1.61,4.78,1.61,1.49,0,2.77-.37,3.85-1.12,1.07-.75,1.73-1.53,1.98-2.37h6.5c-1.04,3.22-2.63,5.53-4.78,6.92-2.15,1.39-4.75,2.08-7.8,2.08-2.12,0-4.02-.34-5.72-1.01-1.7-.68-3.14-1.64-4.32-2.89-1.18-1.25-2.09-2.74-2.73-4.47-.64-1.73-.96-3.64-.96-5.72s.33-3.88.99-5.62c.66-1.73,1.59-3.23,2.81-4.5,1.21-1.27,2.66-2.26,4.34-2.99,1.68-.73,3.54-1.09,5.59-1.09,2.29,0,4.28.44,5.98,1.33,1.7.88,3.09,2.07,4.19,3.56,1.09,1.49,1.88,3.19,2.37,5.1.49,1.91.66,3.9.52,5.98h-19.4c.1,2.39.71,4.13,1.82,5.2Zm8.35-14.14c-.88-.97-2.23-1.46-4.03-1.46-1.18,0-2.16.2-2.94.6-.78.4-1.4.89-1.87,1.48-.47.59-.8,1.21-.99,1.87-.19.66-.3,1.25-.34,1.77h12.01c-.35-1.87-.96-3.29-1.85-4.26Z"/>
    <path class="cls-1" d="m380.93,27.47v4.99h.1c.35-.83.81-1.6,1.4-2.31.59-.71,1.26-1.32,2.03-1.82.76-.5,1.58-.89,2.44-1.17.87-.28,1.77-.42,2.7-.42.49,0,1.02.09,1.61.26v6.86c-.35-.07-.76-.13-1.25-.18-.49-.05-.95-.08-1.4-.08-1.35,0-2.5.23-3.43.68-.94.45-1.69,1.07-2.26,1.85-.57.78-.98,1.69-1.22,2.73s-.36,2.17-.36,3.38v12.12h-7.38v-26.88h7.02Z"/>
  </g>
</svg>